<svg id="Artwork_3" data-name="Artwork 3" xmlns="http://www.w3.org/2000/svg" width="10.339" height="14.664" viewBox="0 0 10.339 14.664">
  <path id="Path_97" data-name="Path 97" d="M10.339,5.375a5.188,5.188,0,0,1-.928,2.934c-.965,1.4-1.858,2.846-2.754,4.291-.376.607-.746,1.218-1.119,1.827a.405.405,0,0,1-.736,0Q3.08,11.688,1.355,8.946c-.181-.288-.382-.563-.562-.851A5.357,5.357,0,0,1,2.555.73,5.1,5.1,0,0,1,9.584,2.536,5.463,5.463,0,0,1,10.339,5.375ZM7.315,5.28c-.021-.156-.032-.314-.065-.468A2.13,2.13,0,0,0,4.4,3.252,2.2,2.2,0,0,0,3.107,5.844,2.138,2.138,0,0,0,5.478,7.453,2.2,2.2,0,0,0,7.315,5.28Z" transform="translate(0 0)" fill="#636363"/>
</svg>
